<?xml version="1.0" standalone="no"?>
<!DOCTYPE svg PUBLIC "-//W3C//DTD SVG 20010904//EN"
 "http://www.w3.org/TR/2001/REC-SVG-20010904/DTD/svg10.dtd">
<svg version="1.0" xmlns="http://www.w3.org/2000/svg"
 width="672.000000pt" height="672.000000pt" viewBox="0 0 672.000000 672.000000"
 preserveAspectRatio="xMidYMid meet">
<metadata>
Created by potrace 1.11, written by Peter Selinger 2001-2013
</metadata>
<g transform="translate(0.000000,672.000000) scale(0.100000,-0.100000)"
fill="#000000" stroke="none">
<path d="M3049 6710 c-33 -4 -70 -16 -87 -28 -29 -21 -67 -88 -76 -134 -2 -12
-9 -43 -15 -67 -19 -85 -11 -243 21 -385 67 -306 78 -364 78 -429 0 -67 -16
-157 -29 -157 -3 0 -7 30 -9 68 -4 110 -52 238 -128 338 -46 62 -72 86 -160
156 -143 113 -190 190 -193 315 -3 106 -26 157 -83 183 -48 22 -76 24 -110 11
-13 -5 -50 -17 -83 -27 -33 -9 -64 -20 -70 -24 -5 -4 -21 -11 -35 -15 -41 -12
-185 -79 -188 -87 -2 -5 -8 -8 -13 -8 -17 0 -122 -76 -162 -118 -81 -83 -110
-213 -71 -313 29 -74 104 -178 177 -248 155 -145 193 -188 222 -246 28 -57 30
-66 30 -186 l0 -126 -57 -33 c-74 -43 -145 -114 -171 -170 -11 -25 -21 -46
-22 -47 0 -1 -23 4 -50 13 -86 26 -210 34 -305 22 -262 -36 -460 -271 -460
-545 0 -84 4 -119 25 -178 71 -211 225 -360 610 -590 230 -137 355 -239 355
-288 0 -23 -32 -92 -64 -140 -109 -160 38 -366 224 -314 45 12 99 55 154 123
l44 54 58 -71 c81 -99 232 -239 325 -301 43 -29 79 -56 79 -60 0 -12 -86 -67
-136 -86 -70 -28 -201 -58 -329 -77 -118 -17 -156 -23 -195 -30 -14 -2 -43 -7
-65 -10 -118 -17 -250 -63 -312 -111 -38 -29 -81 -89 -89 -125 -3 -13 -7 -46
-8 -74 -1 -27 -10 -68 -19 -90 -18 -40 -25 -65 -27 -100 -1 -15 -6 -11 -21 17
-10 21 -35 48 -55 62 -34 23 -41 24 -197 22 -98 -1 -170 -6 -182 -13 -28 -15
-58 -50 -71 -81 -10 -26 -11 -26 -23 23 -19 79 -29 98 -67 125 -35 23 -44 24
-198 25 -88 1 -176 -3 -195 -8 -45 -12 -89 -59 -97 -105 -7 -35 -3 -54 56
-252 37 -123 92 -315 95 -325 1 -5 7 -23 13 -38 7 -16 12 -32 12 -37 0 -5 20
-79 45 -163 25 -85 45 -156 45 -159 0 -2 -30 -5 -66 -6 -82 -2 -122 -23 -149
-77 -18 -35 -20 -58 -19 -166 1 -103 5 -132 20 -158 25 -42 82 -69 144 -67
l50 1 0 -220 c0 -242 5 -267 63 -309 26 -19 41 -21 170 -20 204 2 216 2 382 0
143 -1 152 0 183 23 18 13 37 34 42 46 14 37 69 32 95 -9 40 -61 62 -65 335
-62 139 2 256 8 271 14 15 6 36 23 48 39 20 24 24 26 32 11 5 -9 24 -27 41
-39 31 -23 34 -23 475 -27 436 -3 445 -3 488 18 41 20 46 20 74 6 130 -68 362
-53 486 30 47 31 50 32 60 14 5 -10 23 -29 40 -42 27 -21 40 -23 173 -25 163
-3 194 5 236 60 37 48 76 48 108 1 44 -64 23 -62 790 -63 773 0 738 -3 785 68
21 31 23 45 23 163 0 209 -19 230 -210 238 l-125 5 0 208 -1 207 131 0 c104 0
137 4 164 18 51 25 75 64 75 120 0 41 -9 63 -77 175 l-77 129 26 31 c54 64 86
158 89 265 6 187 -87 340 -257 420 -118 56 -169 63 -476 63 -147 0 -291 1
-321 2 l-54 3 -3 43 c-4 60 -21 99 -63 144 -47 50 -131 93 -222 113 -13 3 -33
7 -44 9 -41 9 -64 14 -112 21 -26 3 -57 8 -68 10 -11 2 -42 7 -70 10 -89 11
-313 54 -362 70 -94 31 -193 85 -193 107 0 3 17 16 38 28 73 45 158 115 243
199 80 79 160 170 167 191 2 4 40 -29 85 -75 89 -89 123 -106 201 -100 77 6
139 52 170 126 30 70 18 133 -41 225 -18 29 -36 72 -39 96 -6 42 -5 44 53 98
59 54 164 127 293 204 327 193 491 336 574 500 50 101 66 173 62 285 -6 154
-55 269 -161 375 -71 72 -129 107 -229 139 -89 29 -262 25 -379 -9 -47 -14
-48 -14 -57 11 -6 14 -10 28 -10 32 0 21 -101 117 -166 158 -56 35 -72 49 -64
59 6 8 8 49 4 111 -7 111 4 153 55 227 38 55 54 72 131 137 107 92 192 196
232 287 24 54 31 156 15 211 -41 140 -226 269 -532 371 -126 42 -174 45 -220
15 -45 -29 -63 -72 -66 -154 -1 -41 -6 -91 -12 -110 -16 -59 -78 -141 -151
-199 -234 -187 -314 -327 -326 -571 l-2 -35 -15 45 c-15 49 -20 148 -9 220 5
35 43 209 60 275 3 14 24 114 31 150 12 59 14 231 4 285 -25 133 -61 200 -122
226 -37 15 -80 18 -337 19 -162 1 -320 -2 -351 -5z m-1359 -2313 c35 -18 67
-39 70 -47 31 -71 59 -116 91 -143 36 -31 63 -97 40 -97 -6 0 -11 4 -11 8 0 5
-12 14 -27 21 -43 20 -187 127 -246 184 -53 50 -74 87 -63 106 10 16 79 1 146
-32z m3497 29 c29 -29 -133 -176 -326 -299 l-34 -21 6 32 c4 20 26 52 56 82
27 27 55 66 61 87 16 50 30 65 87 93 67 33 132 45 150 26z m-2246 -2423 c4
-42 3 -63 -2 -63 -8 0 -49 54 -49 64 0 9 50 7 51 -1z m989 -35 c-1 -40 -2 -42
-16 -23 -8 11 -21 28 -29 38 -21 24 -19 27 15 27 29 0 30 -2 30 -42z m-1967
-876 c0 -56 -4 -76 -22 -101 -12 -17 -25 -48 -28 -68 l-6 -37 -13 37 c-10 30
-10 42 0 61 7 14 23 61 36 105 13 44 26 78 28 76 2 -2 4 -35 5 -73z m-584 -43
c1 -12 -6 -15 -24 -11 -29 5 -29 4 -14 57 l12 40 13 -35 c7 -19 13 -42 13 -51z
m1529 25 l21 -31 -27 1 c-22 1 -27 6 -28 26 0 24 5 45 10 38 1 -2 12 -17 24
-34z m996 -16 c19 -29 44 -63 55 -75 33 -35 25 -34 -39 4 -59 35 -60 37 -60
80 0 23 2 43 4 43 3 0 21 -24 40 -52z m256 -148 c111 0 111 0 104 -22 -10 -34
-123 -327 -143 -372 l-18 -39 -15 29 c-8 16 -22 41 -32 56 -16 25 -16 27 2 40
82 58 67 186 -36 300 l-37 41 32 -16 c24 -13 59 -17 143 -17z m620 -10 c0 -5
-2 -10 -4 -10 -3 0 -8 5 -11 10 -3 6 -1 10 4 10 6 0 11 -4 11 -10z m570 -17
c2 -61 2 -291 1 -340 l-1 -53 -45 0 -44 0 -3 98 c-2 53 -2 148 0 210 l3 112
45 0 c41 0 44 -2 44 -27z m-2710 -318 c0 -8 -2 -15 -4 -15 -2 0 -6 7 -10 15
-3 8 -1 15 4 15 6 0 10 -7 10 -15z m-1367 -15 c-3 -11 -9 -20 -14 -20 -5 0 -9
9 -9 20 0 11 6 20 14 20 9 0 12 -7 9 -20z"/>
</g>
</svg>
